<svg width="21" height="18" viewBox="0 0 21 18" fill="none" xmlns="http://www.w3.org/2000/svg">
<path d="M20.6706 18H0.67057V16H1.67057V1C1.67057 0.734784 1.77593 0.48043 1.96346 0.292893C2.151 0.105357 2.40535 0 2.67057 0H16.6706C16.9358 0 17.1901 0.105357 17.3777 0.292893C17.5652 0.48043 17.6706 0.734784 17.6706 1V6H19.6706V16H20.6706V18ZM15.6706 16H17.6706V8H11.6706V16H13.6706V10H15.6706V16ZM15.6706 6V2H3.67057V16H9.67057V6H15.6706ZM5.67057 8H7.67057V10H5.67057V8ZM5.67057 12H7.67057V14H5.67057V12ZM5.67057 4H7.67057V6H5.67057V4Z" fill="black"/>
</svg>
